# xmcd
#
# Track frame offsets:
#	150
#	17864
#	41111
#	59349
#	75049
#	92390
#	109475
#	125951
#	138507
#	166162
#
# Disc length: 2587 seconds
#
# Revision: 0
# Processed by: cddbd v1.5.2PL0 Copyright (c) Steve Scherf et al.
# Submitted via: audiograbber 1.83.01
#
DISCID=800a190a
DTITLE=Ostfront - Adrenalin - Live in Moskau
DYEAR=2018
DGENRE=Heavy Metal
TTITLE0=Sonne Mond und Sterne
TTITLE1=Denkelied
TTITLE2=Sternenkinder
TTITLE3=Bruderherz
TTITLE4=Gang Bang
TTITLE5=Ich liebe Es
TTITLE6=911
TTITLE7=Volksmusik
TTITLE8=Mensch
TTITLE9=Bitte schlag Mich
EXTD=
EXTT0=
EXTT1=
EXTT2=
EXTT3=
EXTT4=
EXTT5=
EXTT6=
EXTT7=
EXTT8=
EXTT9=
PLAYORDER=
